<?xml version="1.0" encoding="UTF-8"?>
<svg width="100px" height="100px" viewBox="0 0 100 100" version="1.1" xmlns="http://www.w3.org/2000/svg" xmlns:xlink="http://www.w3.org/1999/xlink">
    <!-- Generator: Sketch 48.2 (47327) - http://www.bohemiancoding.com/sketch -->
    <title>electrics_404</title>
    <desc>Created with Sketch.</desc>
    <defs></defs>
    <g id="Page-1" stroke="none" stroke-width="1" fill="none" fill-rule="evenodd">
        <g id="electrics_404" fill="#000000" fill-rule="nonzero">
            <g id="noun_empty-battery_539744" transform="translate(24.000000, 3.000000)">
                <path d="M7.2,93.7 L44.7,93.7 C48.5,93.7 51.6,90.6 51.6,86.8 L51.6,15.2 C51.6,11.4 48.5,8.3 44.7,8.3 L35,8.3 L35,3.6 C35,1.8 33.6,0.4 31.8,0.4 L20.2,0.4 C18.4,0.4 17,1.8 17,3.6 L17,8.3 L7.2,8.3 C3.4,8.3 0.3,11.4 0.3,15.2 L0.3,86.8 C0.4,90.6 3.4,93.7 7.2,93.7 Z M9.8,17.8 L42.1,17.8 L42.1,84.2 L9.8,84.2 L9.8,17.8 Z M22,58.8 L21.3,31.6 C21.3,30.8 21.9,30.2 22.7,30.2 L29.4,30.2 C30.2,30.2 30.8,30.8 30.8,31.6 L30,58.8 C30,59.5 29.4,60 28.8,60 L23.2,60 C22.6,60 22,59.4 22,58.8 Z M30.7,66.3 L30.7,69.7 C30.7,70.8 29.8,71.8 28.6,71.8 L23.3,71.8 C22.2,71.8 21.2,70.9 21.2,69.7 L21.2,66.3 C21.2,65.2 22.1,64.2 23.3,64.2 L28.6,64.2 C29.8,64.2 30.7,65.2 30.7,66.3 Z" id="Shape"></path>
            </g>
        </g>
    </g>
</svg>