<?xml version="1.0" encoding="UTF-8"?>
<svg width="82px" height="104px" viewBox="0 0 82 104" version="1.1" xmlns="http://www.w3.org/2000/svg" xmlns:xlink="http://www.w3.org/1999/xlink">
    <!-- Generator: Sketch 51.2 (57519) - http://www.bohemiancoding.com/sketch -->
    <title>Nookmas Tree</title>
    <desc>Created with Sketch.</desc>
    <defs>
        <radialGradient cx="50%" cy="50%" fx="50%" fy="50%" r="50%" id="radialGradient-1">
            <stop stop-color="#FF9797" offset="0%"></stop>
            <stop stop-color="#FF0000" offset="100%"></stop>
        </radialGradient>
        <radialGradient cx="50%" cy="50%" fx="50%" fy="50%" r="50%" id="radialGradient-2">
            <stop stop-color="#FFEC64" offset="0%"></stop>
            <stop stop-color="#BDA700" offset="100%"></stop>
        </radialGradient>
        <radialGradient cx="50%" cy="50%" fx="50%" fy="50%" r="50%" id="radialGradient-3">
            <stop stop-color="#FFFFFF" offset="0%"></stop>
            <stop stop-color="#DBDBDB" offset="100%"></stop>
        </radialGradient>
        <linearGradient x1="50%" y1="21.7208615%" x2="50%" y2="100%" id="linearGradient-4">
            <stop stop-color="#FFFA00" offset="0%"></stop>
            <stop stop-color="#FFA000" offset="100%"></stop>
        </linearGradient>
        <radialGradient cx="50%" cy="50%" fx="50%" fy="50%" r="50%" gradientTransform="translate(0.500000,0.500000),scale(0.959958,1.000000),rotate(90.000000),translate(-0.500000,-0.500000)" id="radialGradient-5">
            <stop stop-color="#FFFCC0" offset="0%"></stop>
            <stop stop-color="#EAEA30" offset="100%"></stop>
        </radialGradient>
    </defs>
    <g id="Nookmas-Tree" stroke="none" stroke-width="1" fill="none" fill-rule="evenodd">
        <g id="noun_Christmas-tree_1998835" transform="translate(5.000000, 1.000000)">
            <g id="Group">
                <circle id="Oval" fill="url(#radialGradient-1)" cx="42.5" cy="32.5" r="3.5"></circle>
                <circle id="Oval" fill="url(#radialGradient-1)" cx="42.5" cy="60.5" r="3.5"></circle>
                <circle id="Oval" fill="url(#radialGradient-2)" cx="49.5" cy="49.5" r="3.5"></circle>
                <circle id="Oval" fill="url(#radialGradient-2)" cx="30.5" cy="70.5" r="3.5"></circle>
                <circle id="Oval" fill="url(#radialGradient-3)" cx="35.5" cy="47.5" r="3.5"></circle>
                <circle id="Oval" fill="url(#radialGradient-3)" cx="53.5" cy="69.5" r="3.5"></circle>
                <path d="M71.7,74.5 C67.5,70.2 63.6,65.6 60.1,60.8 L62.1,60.8 C63.5,60.8 64.7,60 65.2,58.8 C65.7,57.6 65.5,56.1 64.5,55.2 C60.4,51 56.7,46.4 53.6,41.5 L54.9,41.5 C56.2,41.5 57.4,40.7 58,39.5 C58.5,38.3 58.3,36.9 57.5,35.9 C56.7,35 55.9,34.1 55.1,33.2 C51.8,29.6 48.7,26.2 47.2,22 L46.8,21.1 L46.7,21.1 C45.8,21.1 44.9,20.9 44.2,20.4 L42,19 L39.9,20.2 C39.1,20.7 38.2,20.9 37.4,20.9 L37.3,20.9 L36.9,21.8 C35.3,26 32.2,29.4 29,33 C28.2,33.9 27.4,34.8 26.6,35.7 C25.7,36.7 25.5,38.1 26.1,39.3 C26.6,40.5 27.8,41.3 29.2,41.3 L30.5,41.3 C27.3,46.2 23.7,50.8 19.6,55 C18.6,56 18.4,57.4 18.9,58.6 C19.4,59.9 20.6,60.6 22,60.6 L24,60.6 C20.5,65.4 16.7,70 12.4,74.3 C11.4,75.3 11.2,76.7 11.7,78 C12.2,79.2 13.4,80 14.8,80 L39.2,80 L39.2,89.7 L32.5,89.7 C30.9,89.7 29.7,91 29.7,92.5 C29.7,94 31,95.3 32.5,95.3 L51.6,95.3 C53.2,95.3 54.4,94 54.4,92.5 C54.4,91 53.1,89.7 51.6,89.7 L44.9,89.7 L44.9,80 L69.3,80 C70.7,80 71.9,79.2 72.4,78 C72.9,76.9 72.6,75.4 71.7,74.5 Z M30.5,73.6 C29.2,73.6 28.1,72.5 28.1,71.2 C28.1,69.8 29.2,68.8 30.5,68.8 C31.9,68.8 32.9,69.9 32.9,71.2 C33,72.5 31.9,73.6 30.5,73.6 Z M35.7,50.4 C34.3,50.4 33.3,49.3 33.3,48 C33.3,46.7 34.4,45.6 35.7,45.6 C37.1,45.6 38.1,46.7 38.1,48 C38.2,49.3 37.1,50.4 35.7,50.4 Z M41.3,63.2 C40,63.2 38.9,62.1 38.9,60.8 C38.9,59.4 40,58.4 41.3,58.4 C42.7,58.4 43.7,59.5 43.7,60.8 C43.7,62.1 42.7,63.2 41.3,63.2 Z M42.3,35.7 C40.9,35.7 39.9,34.6 39.9,33.3 C39.9,31.9 41,30.9 42.3,30.9 C43.7,30.9 44.7,32 44.7,33.3 C44.8,34.7 43.7,35.7 42.3,35.7 Z M46.7,49.8 C46.7,48.5 47.8,47.4 49.1,47.4 C50.5,47.4 51.5,48.5 51.5,49.8 C51.5,51.2 50.4,52.2 49.1,52.2 C47.8,52.2 46.7,51.2 46.7,49.8 Z M53,72 C51.6,72 50.6,70.9 50.6,69.6 C50.6,68.3 51.7,67.2 53,67.2 C54.3,67.2 55.4,68.3 55.4,69.6 C55.4,70.9 54.3,72 53,72 Z" id="Shape" stroke="#000000" fill="#185A00" fill-rule="nonzero"></path>
                <path d="M12.4858096,88.892762 C12.6323693,88.892762 12.778929,88.9656457 12.778929,89.1114132 C12.8522088,89.2571807 12.8155689,89.4029482 12.7056491,89.5122738 L5.74406355,96.8006479 C5.67078371,96.8735316 5.59750386,96.9099735 5.48758408,96.9099735 C5.45094416,96.9099735 5.37766431,96.8735316 5.30438446,96.8370897 C5.15782477,96.764206 5.08454492,96.5455548 5.15782477,96.3997873 L7.1730206,91.4436929 L3.6922278,91.4436929 C3.54566811,91.4436929 3.43574833,91.3343673 3.36246848,91.2250417 C3.28918864,91.1157161 3.32582856,90.9699486 3.39910841,90.860623 L8.89509703,83.5722489 C9.0050168,83.4264814 9.18821642,83.3900395 9.33477612,83.4629233 C9.51797574,83.535807 9.59125559,83.6815745 9.55461566,83.8637838 L8.52869779,88.892762 L12.4858096,88.892762 Z" id="Shape" stroke="#000000" fill="url(#linearGradient-4)" fill-rule="nonzero" transform="translate(8.069789, 90.168227) rotate(-43.000000) translate(-8.069789, -90.168227) "></path>
                <rect id="Rectangle" fill="#FF0000" fill-rule="nonzero" x="4" y="95" width="15" height="7"></rect>
                <rect id="Rectangle" fill="#FFFFFF" fill-rule="nonzero" x="10" y="95" width="3" height="7"></rect>
                <rect id="Rectangle" fill="#FF0000" fill-rule="nonzero" transform="translate(19.043514, 93.071068) rotate(53.000000) translate(-19.043514, -93.071068) " x="10.3227453" y="89.571068" width="17.4415369" height="7"></rect>
                <rect id="Rectangle" fill="#FFFFFF" fill-rule="nonzero" transform="translate(19.233912, 93.323735) rotate(53.000000) translate(-19.233912, -93.323735) " x="17.4341436" y="89.8237348" width="3.59953658" height="7"></rect>
                <path d="M4.48075814,102.712746 L9.76690672,102.712746 L13.310933,102.712746 L18.5934822,102.712746 C18.8590572,102.712746 19.0742403,102.497406 19.0742403,102.231988 L19.0742403,99.3877366 L21.427952,102.520881 C21.5224761,102.646391 21.6666096,102.712746 21.8126211,102.712746 C21.9132486,102.712746 22.014502,102.681446 22.1010447,102.616344 L27.1815565,98.7993869 C27.3937662,98.6400732 27.4366463,98.3386604 27.277176,98.1264507 L25.3982756,95.6259255 C25.53701,95.6413209 25.6756466,95.6509845 25.8133051,95.6509845 C27.1396153,95.6509845 28.3790699,94.9523828 28.8268073,93.8456375 C29.080332,93.2187114 29.0534146,92.5338815 28.7509063,91.9179101 C28.3875208,91.1770543 27.6630971,90.607093 26.7626146,90.3538812 C26.1807791,90.1909485 25.3774419,90.1146367 24.5713857,90.1417498 L23.811359,89.1306045 C24.0622233,88.3679956 24.2132428,87.5761414 24.2186028,86.9672907 C24.2242367,86.0305009 23.8766573,85.1747764 23.2652243,84.6195258 C22.7577052,84.1587993 22.1094955,83.9443987 21.4364028,84.0123183 C20.1282657,84.1467295 19.0283672,85.3451819 18.7727296,86.8082899 L16.8917361,84.3049673 C16.8152091,84.2032443 16.701123,84.1356377 16.5748301,84.1177971 C16.4472852,84.0999564 16.3202098,84.1328208 16.2184869,84.2095042 L11.1379751,88.0302168 C11.0359392,88.1069003 10.9686456,88.22083 10.9508049,88.3472793 C10.9329643,88.4734158 10.9659851,88.6017431 11.0426685,88.703466 L15.0922577,94.0872686 L13.310933,94.0872686 L9.76690672,94.0872686 L4.48075814,94.0872686 C4.21518308,94.0872686 4,94.3026082 4,94.5680267 L4,102.231988 C4,102.497406 4.21518308,102.712746 4.48075814,102.712746 Z M18.112724,101.751229 L13.7916912,101.751229 L13.7916912,95.0487849 L15.8145687,95.0487849 L17.3005057,97.0287823 C17.302814,97.0318535 17.3058461,97.0341814 17.3082132,97.037194 L18.112724,98.1082971 L18.112724,101.751229 Z M16.2295982,94.0030733 L20.5418476,90.763179 L22.0911659,92.8249851 L17.7813421,96.0656815 L16.4394603,94.2794466 C16.4291315,94.2656749 16.4180203,94.2525292 16.406283,94.2400094 L16.2295982,94.0030733 Z M21.2359305,89.1798423 C21.4759965,88.999558 21.772245,88.9238135 22.0709974,88.9657547 C22.3695932,89.0083218 22.6332903,89.1635666 22.8135746,89.4036327 L22.8806726,89.4928945 L22.8897885,89.5050426 C22.8898081,89.5050621 22.8898081,89.5050621 22.8898277,89.5050817 L23.9543775,90.9213777 C23.9546709,90.9217494 23.9547688,90.9222188 23.9550622,90.9225905 L24.0265812,91.0174276 C24.1198924,91.1416078 24.1836062,91.2789728 24.2189158,91.4209937 C24.3248446,91.8470953 24.1752141,92.3151772 23.8027908,92.5952282 L23.3681993,92.9216805 L23.1517642,92.6336873 C23.1510404,92.6327092 23.1506296,92.6315746 23.1498862,92.6305965 L21.0227818,89.8005085 C21.0222537,89.7998043 21.021569,89.7993153 21.0210408,89.7986306 L20.8014171,89.5063924 L21.2359305,89.1798423 Z M21.9079277,101.558738 L18.3591282,96.8347849 L22.6688542,93.5937951 L26.2197272,98.3192548 L21.9079277,101.558738 Z M26.5028299,91.2797162 C27.1397719,91.4587485 27.6446305,91.8459216 27.8878265,92.3413904 C28.0707713,92.7141658 28.0872034,93.1097897 27.9354015,93.485069 C27.5516714,94.4334395 26.2594774,94.9260914 25.0542956,94.5843024 C24.866343,94.5282766 24.6556983,94.4468983 24.4392633,94.3467403 L23.9459854,93.6903928 L24.380577,93.3639405 C24.4603316,93.3039826 24.5324767,93.2378823 24.6011005,93.169278 C24.6170045,93.1533545 24.6327911,93.1375679 24.6481082,93.1212335 C24.712937,93.0521011 24.77356,92.9801908 24.8274535,92.9042703 C24.8342807,92.8946653 24.839895,92.8845126 24.8465461,92.8748098 C24.8945711,92.8046405 24.9373534,92.7318304 24.9760668,92.6570836 C24.9853784,92.6391452 24.995042,92.6215589 25.0038059,92.6033857 C25.043556,92.5208727 25.0781614,92.436384 25.1066243,92.3499196 C25.1117887,92.3341916 25.1156815,92.3182485 25.1204742,92.3024032 C25.1442422,92.2240375 25.1633739,92.1446153 25.1778303,92.0641955 C25.1807255,92.0481546 25.1844619,92.0324071 25.1869658,92.0163075 C25.2010505,91.9260284 25.2087971,91.8350255 25.2110468,91.7435727 C25.2115162,91.724754 25.2109881,91.7060526 25.2109294,91.6872143 C25.2107338,91.6019627 25.206078,91.5167111 25.1954558,91.4317333 C25.1942038,91.4217567 25.1939104,91.4117604 25.1925019,91.4018033 C25.1796887,91.3100375 25.1593246,91.219152 25.1340895,91.1290686 C25.1314682,91.1196983 25.1307639,91.1100346 25.1280057,91.100684 C25.6482009,91.1157076 26.1394444,91.1779933 26.5028299,91.2797162 Z M21.5348393,84.9688266 C21.9371926,84.9262595 22.3118459,85.0527089 22.6188926,85.3315862 C23.0284447,85.7034226 23.2609989,86.2974844 23.2570865,86.9600918 C23.2538,87.338814 23.1771166,87.826145 23.0470678,88.3263088 C23.0366216,88.3195599 23.0252756,88.3143563 23.0147121,88.307803 C22.9785222,88.2853457 22.9414325,88.2646099 22.9039124,88.2444414 C22.8781686,88.2305914 22.8526792,88.2164285 22.8263486,88.2036739 C22.7868332,88.1845618 22.746281,88.1676992 22.7055331,88.1510715 C22.6797503,88.1405666 22.6544565,88.129201 22.6282041,88.1197134 C22.5825853,88.103203 22.5357732,88.0896073 22.4888242,88.0762464 C22.4661126,88.0697909 22.444027,88.0619661 22.4210611,88.056254 C22.3505788,88.0387459 22.2789816,88.0242699 22.206054,88.0139412 C21.6531509,87.9341278 21.1033777,88.0765399 20.6581443,88.41113 L20.2237092,88.7375823 L19.7304313,88.0815478 C19.695376,87.8486806 19.6772224,87.6264551 19.6776919,87.4339641 C19.6850473,86.2004564 20.5354508,85.0714885 21.5348393,84.9688266 Z M16.4119169,85.2671095 L19.9642962,89.9945841 L15.6510491,93.2350066 L12.1001173,88.509723 L16.4119169,85.2671095 Z M12.8301749,95.0487849 L12.8301749,101.751229 L10.2476649,101.751229 L10.2476649,95.0487849 L12.8301749,95.0487849 Z M4.96151628,95.0487849 L9.28614858,95.0487849 L9.28614858,101.751229 L4.96151628,101.751229 L4.96151628,95.0487849 Z" id="Shape" fill="#000000" fill-rule="nonzero"></path>
                <path d="M37.2,11.2 L36.2,15.7 C36,16.7 37.1,17.6 38,17 L42,14.6 L46,17 C46.9,17.5 48,16.7 47.8,15.7 L46.8,11.2 L50.3,8.1 C51.1,7.4 50.7,6.1 49.6,6 L45,5.5 L43.2,1.2 C42.8,0.2 41.4,0.2 41,1.2 L39,5.5 L34.4,5.9 C33.3,6 32.9,7.3 33.7,8 L37.2,11.2 Z" id="Shape" fill="url(#radialGradient-5)" fill-rule="nonzero"></path>
            </g>
        </g>
    </g>
</svg>