<?xml version="1.0" encoding="UTF-8"?>
<svg width="448px" height="67px" viewBox="0 0 448 67" version="1.1" xmlns="http://www.w3.org/2000/svg" xmlns:xlink="http://www.w3.org/1999/xlink">
    <!-- Generator: Sketch 51.2 (57519) - http://www.bohemiancoding.com/sketch -->
    <title>st_nookolas</title>
    <desc>Created with Sketch.</desc>
    <defs>
        <path d="M51.9872603,14.765828 C52.0642034,14.0002658 51.789841,13.2409073 51.2394097,12.6959866 C50.8335985,12.2694261 50.2637767,12.0322166 49.6709089,12.0430398 C48.6572313,12.1395697 47.6993785,12.5458818 46.9309961,13.2052852 C46.7629645,12.8603506 46.4182089,12.6327596 46.0309281,12.6111036 C45.6404575,12.6111036 44.8396617,12.6111036 44.4756636,16.1108984 L43.9329756,16.1696637 L42.6093462,17.4755573 L43.4299964,18.4876248 C42.7161212,19.5083327 41.942699,20.4872281 41.113645,21.419356 C40.7522798,21.8571323 40.254344,22.164746 39.6973616,22.2943047 L39.6973616,22.1114796 C40.2003407,17.4429099 36.2360707,15.5820115 35.1506947,15.1314782 L33.4630672,12.0495693 C33.5160124,9.52919463 33.1652506,8.83707102 32.8608158,8.52365655 C32.724577,8.3791398 32.5425067,8.28471855 32.3446004,8.25594836 L31.1467158,7.91641602 L30.2135571,6.45381517 L36.5405055,5.51357177 L37.2023202,3.17602221 L36.7059592,2.94096136 C32.3512185,0.910296787 29.2473076,0.00270072603 26.6529941,0.00270072603 C24.5880407,-0.0499290649 22.5790296,0.668287664 21.0275692,2.01377689 C17.8574769,4.74309454 17.3809703,9.77078495 17.3147888,11.2464447 L16.5206112,11.6382128 L16.421339,11.8406263 C15.6403977,13.4795228 16.8647548,15.4448927 17.3015525,16.0586627 L17.3015525,16.6006085 C15.9056487,16.777776 14.6580524,17.5482683 13.8865887,18.7096267 C13.2180392,20.0126722 13.1129849,21.5273256 13.5953903,22.9080747 C13.5225907,23.1757829 13.3836096,23.2019008 12.9335756,23.2541365 C12.8210671,23.2541365 12.7019405,23.2541365 12.589432,23.3063722 C11.191195,22.131353 9.87556128,20.8638891 8.65163456,19.5127513 L9.64435659,18.4419185 L8.21483687,16.4830781 L7.6125855,16.8421989 C6.91768008,14.2304116 6.37499204,13.649289 5.71317735,13.649289 C5.16387116,13.649289 4.76678234,14.0998223 4.52852906,14.9943594 C2.6291209,13.9953508 1.10694712,14.2173527 0.38556911,15.4448927 C-0.0882424523,16.290805 -0.127528443,17.3082441 0.27967876,18.1872693 C0.782657923,19.0556885 2.66221164,19.8522836 3.87995066,20.2962875 L3.41006223,20.9492343 L5.16387116,22.7187201 L5.99113952,22.0265965 C7.11790542,23.2310156 8.33225078,24.3527096 9.62450215,25.3827431 C10.835623,26.3556338 11.014313,26.8518734 11.0407856,26.9955217 L10.9613678,27.0346985 L10.8620956,27.2109942 C8.69796159,31.0503214 9.53846624,36.3130726 9.53846624,36.4958977 C10.385589,44.6512034 16.6993012,48.3730001 20.4650267,50.547313 C21.7290928,51.2851429 23.0328677,52.0490907 23.1917033,52.5061534 C23.7447534,54.6261049 24.1865507,56.7728015 24.5153326,58.9376795 C22.1261816,59.4665664 21.7952743,61.1511692 21.782038,61.2295228 L21.6430569,61.9934705 L28.0295686,61.9934705 L27.6258617,52.290681 L28.0758956,52.290681 L28.0758956,62 L34.4690255,62 L34.3035719,61.2099344 C33.9594282,59.5906263 32.3181278,59.1139751 31.3982054,58.9768563 C31.4380458,57.0139282 31.7384192,55.0646125 32.2916552,53.1786886 C32.642417,52.2384452 33.2711409,51.7030289 34.938914,50.2730754 C36.0044356,49.3720088 37.4604279,48.1314098 39.4723446,46.250923 C44.9918791,41.1057022 44.6080266,31.7359155 42.8409813,28.1316491 C41.9012045,26.2315739 42.0401856,25.4284494 42.1791666,25.2652127 L42.2254937,25.2652127 C43.8789781,24.2489143 45.2773735,22.8759539 46.3155084,21.2495898 L46.9773231,21.8503009 L49.0620394,19.467045 L48.7443683,18.9250992 C50.7695213,17.4167921 51.8482792,16.0521332 51.9872603,14.765828 Z M21.8945465,3.0127855 C23.2002455,1.88721682 24.8865316,1.28605115 26.6199033,1.32818274 C28.9097822,1.32818274 31.7026401,2.12477785 35.6073468,3.93996997 L35.481602,4.39703273 L28.0163323,5.47439496 L29.6774872,8.08618219 L18.6715089,10.8089704 C18.8171082,9.07866134 19.4061232,5.13486262 21.8945465,3.0127855 Z M15.0513826,19.3756325 C15.567598,18.5333311 16.5735564,18.0044442 18.0560213,17.8020307 L18.6318001,17.7236771 L18.6318001,15.6277178 L18.492819,15.4514222 C18.1420572,15.0074183 17.2684618,13.5905238 17.5530421,12.5980446 L18.2148568,12.2781007 L30.7297725,9.17007389 L31.9541297,9.5161357 C32.1776849,10.3947171 32.2470754,11.3045831 32.1592923,12.2062765 L32.1592923,12.2389239 L18.764163,15.072713 L18.8700533,15.686483 C19.0685977,16.8421989 19.8958661,18.8010393 21.7290928,18.8010393 C22.2262472,18.7876444 22.7134109,18.66022 23.1519944,18.4288596 C23.4421717,18.2820323 23.7597445,18.19537 24.0851531,18.1742103 C24.3234064,18.1742103 24.3895878,18.252564 24.4160604,18.2852113 C24.8719835,18.7522884 25.5062396,19.0082801 26.1632512,18.9903939 C26.9924303,19.0414009 27.7661241,18.5776734 28.1023682,17.8281485 C28.2414727,17.7310749 28.4085331,17.6807127 28.5788748,17.6845002 C28.9076563,17.7100567 29.2190151,17.8407257 29.4657065,18.0566799 L29.578215,18.1480925 L29.7238142,18.1480925 C29.991521,18.2036589 30.2642806,18.2321009 30.5378463,18.2329756 C31.7026401,18.2329756 32.4372544,17.6649118 32.5232904,16.7246684 C32.6093263,15.6081294 32.5232904,13.6166416 32.5232904,13.0616369 L34.2373904,16.1892521 L34.4954981,16.2676057 C34.6741881,16.3198414 38.8767114,17.6518529 38.3803503,22.0070081 L38.3803503,22.0592438 L38.45315,23.4043143 C38.6186036,25.8855121 38.0626793,26.9041092 37.5464638,27.3219951 C37.1180237,27.6371638 36.56658,27.7406787 36.0507626,27.6027622 L35.0646588,27.3285246 L35.1573128,28.3144743 C35.2896757,29.7248394 35.0117136,30.723848 34.3300444,31.2919117 C33.0659784,32.3366266 30.7430088,31.7293861 30.7231544,31.7228566 L30.253266,31.5987967 L29.9885401,32.0036237 C29.5825523,32.7566061 28.852352,33.2873126 28.003096,33.4466362 C26.3750319,33.6686381 24.6940226,32.2125667 24.6940226,32.1995078 L24.3167882,31.8665049 L23.8932268,32.1342131 C22.4901797,33.0287502 21.332004,33.2833995 20.5047356,32.8916314 C19.1281611,32.2386846 18.856817,30.0186654 18.856817,29.9925475 L18.8038719,29.5420143 L18.3538379,29.4375428 C16.8316641,29.0523041 15.8852691,28.4189457 15.5278892,27.5505265 C14.9984374,26.2446329 15.9183598,24.7428552 15.9315961,24.7297963 L16.3154486,24.1225558 L15.653634,23.8026118 C15.3135867,23.5490032 15.0652986,23.1941529 14.9454922,22.7905443 L14.8859289,22.633837 C14.8859289,22.633837 14.2108779,20.7468208 15.0513826,19.3756325 Z M28.3340034,15.6538357 C27.9971828,15.6906064 27.7429326,15.972453 27.7449883,16.3067825 C27.7462978,16.382384 27.7596991,16.4573072 27.7846972,16.5287844 C27.4882335,16.6490914 27.2234312,16.8344256 27.010374,17.0707302 L26.9111018,17.1947901 L26.9111018,17.3514974 C26.8581566,17.5930877 26.5073948,17.6975592 26.2029601,17.6975592 C25.9252963,17.7115028 25.6535503,17.6150791 25.4484913,17.429851 C25.1615794,17.1167896 24.7633114,16.9250016 24.3366427,16.8944346 C24.3669387,16.8151099 24.3826275,16.7310834 24.3829697,16.6463148 C24.4177722,16.4179047 24.313726,16.1905622 24.1170481,16.065272 C23.9203702,15.9399818 23.667539,15.9399818 23.4708611,16.065272 C23.2741832,16.1905622 23.1701371,16.4179047 23.2049395,16.6463148 C23.206523,16.7692018 23.2432265,16.8891531 23.3108299,16.9923766 C23.0592569,17.0617069 22.8153699,17.1557671 22.5828337,17.2731438 C22.3335162,17.403889 22.0575455,17.4775366 21.7754198,17.4886162 C21.0275692,17.4886162 20.6040078,16.6659032 20.3922271,16.0651922 L31.2128973,13.7668194 C31.2128973,14.5895324 31.2526062,15.8693081 31.2128973,16.6463148 C31.2128973,16.7442568 31.2128973,16.9466704 30.5510826,16.9466704 C30.4166841,16.9561214 30.2817741,16.9561214 30.1473756,16.9466704 C29.7872428,16.6617325 29.3626681,16.4668499 28.9097822,16.3786066 C28.9120853,16.3481781 28.9120853,16.3176226 28.9097822,16.2871941 C28.9027394,15.9647536 28.6581348,15.6956878 28.3340034,15.6538357 Z M26.8581566,36.1237181 C26.854534,36.2201524 26.7729994,36.2957924 26.6752174,36.2934314 C26.5774355,36.2910704 26.4997489,36.211586 26.5009119,36.1150922 C26.502075,36.0185985 26.5816555,35.9409592 26.6794667,35.940893 C26.7280275,35.9408601 26.7745104,35.9603276 26.8082182,35.9948155 C26.841926,36.0293033 26.8599552,36.0758408 26.8581566,36.1237181 Z M1.43785446,17.527793 C1.26678053,17.0555862 1.3052199,16.534127 1.54374481,16.09131 C1.70648398,15.7991422 2.02750431,15.6280119 2.36439503,15.6538357 C3.18994629,15.7478162 3.9720236,16.0691268 4.62118311,16.5810201 L5.52125109,17.1752017 L5.64037773,16.1108984 C5.66811318,15.8912878 5.70788027,15.6733199 5.75950438,15.4579516 C6.03025593,16.1713836 6.2513739,16.9022033 6.42131906,17.6453234 L4.72707346,19.2123958 C3.29755374,18.6965678 1.67610775,17.9522084 1.43785446,17.527793 Z M5.11754413,20.8317039 L5.42859703,20.3811706 L7.59273106,18.3766239 L7.86407508,18.2133872 L7.93025655,18.3374471 L7.26844186,19.0556885 L5.61390514,20.6619377 L5.24990707,20.9688227 L5.11754413,20.8317039 Z M23.9130813,45.539211 C21.7754198,45.0495009 15.2102181,43.4432518 12.4305964,41.549706 C12.3577968,41.4125872 12.2783791,41.2754684 12.2121976,41.1318201 C15.8985054,43.2865445 22.232072,44.8927937 23.9130813,45.2910912 L23.9130813,45.539211 Z M23.6549735,60.6875769 C24.1486379,60.3588031 24.7218303,60.165042 25.3161284,60.1260427 L25.9779431,60.047689 L25.8720527,59.3947422 C25.8720527,59.3229181 25.7661624,58.6960892 25.6205632,57.8341994 L26.5007767,57.8341994 L26.6132852,60.7071653 L23.6549735,60.6875769 Z M25.3690736,56.2475386 L26.4610678,56.2475386 L26.4610678,56.5087174 L25.4154006,56.5087174 L25.3690736,56.2475386 Z M30.2598841,56.5087174 L29.399525,56.5087174 L29.399525,56.2475386 L30.2863567,56.2475386 C30.2797386,56.3389512 30.2665023,56.4238343 30.2598841,56.5152468 L30.2598841,56.5087174 Z M32.4174,60.6941064 L29.399525,60.6941064 L29.399525,57.8211404 L30.1341393,57.8211404 C30.0878123,58.4740872 30.0613397,59.0878572 30.0613397,59.5775673 L30.0613397,60.2305142 L30.7231544,60.2305142 C31.3176548,60.247186 31.8991208,60.4062911 32.4174,60.6941064 Z M38.5788947,45.3041502 C36.5934507,47.1650486 35.1440765,48.3860591 34.0917912,49.2805962 C32.3247459,50.7823739 31.517332,51.467968 31.0474436,52.7281553 C30.7983185,53.4511703 30.6123326,54.1938837 30.4915193,54.9481745 L29.399525,54.9481745 L29.399525,50.8737864 L26.2559053,51.0370231 L26.4081226,54.954704 L25.1374384,54.954704 C24.96999,53.9923332 24.7490518,53.0397705 24.4756237,52.1013264 C24.1645708,51.1872009 22.9733044,50.4885478 21.1665503,49.430774 C18.9759437,48.1248804 16.1367587,46.4794544 13.9858609,43.8415493 C17.2011407,45.1326628 20.5222731,46.150603 23.9130813,46.8842814 L23.9130813,48.4382948 L30.4650467,48.4382948 L30.4650467,46.9169288 C33.6379865,46.2480081 36.7401181,45.2861162 39.7304523,44.0439628 C39.3809882,44.4934143 38.9959273,44.9147991 38.5788947,45.3041502 Z M25.2367106,47.1258717 L25.2367106,44.8927937 L29.1414173,44.8927937 L29.1414173,47.1324012 L25.2367106,47.1258717 Z M30.4650467,45.330268 C31.788676,45.0429714 37.645736,43.697901 41.1930628,41.6019418 L41.0937906,41.8108847 C38.27446,43.7174894 32.2916552,45.1670313 30.4650467,45.5783878 L30.4650467,45.330268 Z M41.5504427,24.1356147 C41.2439656,24.2942477 41.0081161,24.5595135 40.888628,24.8799741 C40.5511025,25.7353344 40.7959739,27.028169 41.6364786,28.7193013 C42.6622914,30.8022016 43.1520342,35.2487693 41.9938585,39.3688637 C39.5782349,41.7847669 32.463727,43.5281348 30.4518104,43.9851976 L30.4518104,43.5803706 L23.899845,43.5803706 L23.899845,43.9394913 C21.5173121,43.3518392 13.7476077,41.2885273 11.3253659,38.8856831 C11.090231,38.0543936 10.9285843,37.2045577 10.8422412,36.34572 C10.8422412,36.2934842 10.067918,31.4225011 11.9276173,27.9880009 C12.1600221,27.7847666 12.3064863,27.5027553 12.3379424,27.1979352 C12.4239783,26.4078696 11.8018725,25.4872146 10.4385342,24.3967934 C9.19622787,23.4063745 8.02837009,22.3283606 6.94415267,21.1712362 L7.7118577,20.4203474 C11.6827458,24.6057364 12.2386702,24.6187953 12.5166323,24.6187953 L12.682086,24.6187953 L12.7945945,24.5796185 C12.883992,24.5602581 12.9746667,24.5471664 13.0659385,24.5404417 C13.4666673,24.5247141 13.857435,24.412641 14.2042598,24.2139683 C14.2985735,24.3512658 14.4048682,24.480169 14.5219308,24.5992069 C13.9844536,25.6749588 13.901157,26.9170578 14.2902957,28.0532955 C14.7734204,29.2416587 15.8852691,30.097019 17.5993691,30.612847 C17.7780591,31.4747368 18.3406016,33.3552236 19.9157205,34.099583 C21.0937507,34.6545877 22.5298886,34.4521742 24.1910434,33.5054014 C24.9173802,34.0418376 25.7422069,34.4343119 26.6199033,34.6611172 C25.8515565,34.6907013 25.2298797,35.2879 25.1794094,36.0448926 C25.128939,36.8018852 25.6659692,37.474281 26.4237678,37.602908 C27.1815663,37.731535 27.9154822,37.2748668 28.1243321,36.5447572 C28.333182,35.8146476 27.94954,35.0468083 27.235391,34.7655887 C27.3830926,34.7733115 27.5311052,34.7733115 27.6788068,34.7655887 C28.9644043,34.7666049 30.1648518,34.131512 30.8753718,33.0744565 C31.788676,33.2376932 33.8270653,33.4335772 35.2168761,32.2843908 C36.1446611,31.4391686 36.631841,30.2231192 36.5405055,28.98048 C37.2041849,28.9921244 37.8516398,28.7776605 38.3737322,28.3732395 C39.4326357,27.5309381 39.9091423,25.9246889 39.7966338,23.6001983 C40.6948606,23.4523811 41.5083689,22.9884459 42.0865126,22.2943047 C42.8880223,21.3900047 43.6370682,20.4417186 44.3300644,19.4539861 L45.2830775,20.3289348 C44.3574367,21.8681435 43.0790419,23.171898 41.5504427,24.1356147 Z M46.8449602,19.9632846 L46.5868525,19.7216943 L46.5471436,19.6825175 L45.9250378,19.1013948 L44.7403895,18.0109736 L44.3300644,17.5800288 L44.5021362,17.4102626 L44.8595161,17.3710858 L47.2817579,19.1862779 L47.3611757,19.3233967 L46.8449602,19.9632846 Z M47.8443004,17.9260906 L45.7794385,16.3786066 C45.8409452,15.7486787 45.9403932,15.1229202 46.0772552,14.5046493 L46.4081625,15.4579516 L47.1560131,14.7201217 C47.5200112,14.361001 48.7642228,13.329345 49.6642908,13.329345 C49.8935196,13.3211999 50.1144316,13.4146079 50.2665421,13.5839943 C50.5553843,13.8502753 50.7021595,14.2340178 50.6636309,14.6221797 C50.577595,15.5101874 49.5650186,16.6724327 47.8310641,17.9260906 L47.8443004,17.9260906 Z" id="path-1"></path>
    </defs>
    <g id="st_nookolas" stroke="none" stroke-width="1" fill="none" fill-rule="evenodd">
        <g id="Group-2" transform="translate(313.000000, 3.000000)">
            <path d="M127.819119,14.0913094 L128.60197,14.4827346 L128.60197,19.2450753 L127.166744,19.2450753 C122.861066,19.2450753 122.143453,21.6588644 121.099652,26.3559676 C120.251564,30.00927 119.338239,34.1192352 115.293511,36.2068366 C111.705446,42.730591 111.705446,55.9738123 111.705446,56.1042874 L108.834994,56.1695249 L107.856431,38.4249131 C104.529316,38.9468134 101.463152,39.012051 95.3960603,38.2292005 C88.3504056,47.2319815 90.6337196,54.3428737 90.6337196,54.4081112 L91.286095,56.3 L87.6327926,56.3 L84.566628,37.9030127 L85.8713789,37.7073001 C86.1975666,37.6420626 87.2413673,37.3158749 87.567555,36.5982619 C87.8937428,35.8806489 87.5023175,34.9020857 87.1108922,34.1844728 C86.5889919,33.1406721 86.1323291,32.0968714 85.8061414,31.1183082 C84.6971031,31.7054461 83.6533024,31.9011587 82.8704519,31.9011587 C81.6961761,31.9011587 80.9785632,31.5097335 80.9133256,31.5097335 L80,31.0530707 L80.1957126,30.00927 C80.2609502,29.7483198 81.3699884,23.289803 88.4156431,20.6803013 C89.7856315,19.8974508 91.4165701,19.7017381 93.3084589,20.0931634 C94.3522596,20.288876 95.4612978,20.6150637 96.5050985,20.8760139 C102.637428,22.5069525 108.443569,24.0726535 113.075435,13.9608343 C113.140672,13.7651217 113.271147,13.569409 113.336385,13.3736964 C113.597335,12.721321 113.923523,11.9384705 114.380185,11.2208575 C110.596408,9.39420626 107.856431,4.30567787 107.856431,1.73827735e-15 L110.726883,1.73827735e-15 C110.726883,1.63093859 111.248783,3.4575898 112.162109,5.02329085 C113.401622,2.87045191 113.46686,0.0652375435 113.46686,2.31770313e-15 L116.337312,2.31770313e-15 C116.337312,0.260950174 116.337312,4.43615295 113.98876,7.5023175 C115.032561,8.41564311 116.206837,9.06801854 117.381112,9.06801854 C118.620626,9.06801854 119.794902,8.41564311 120.838702,7.43707995 C120.055852,5.80614137 118.816338,3.000927 118.816338,5.79425782e-16 L121.68679,5.79425782e-16 C121.68679,1.69617613 122.208691,3.4575898 122.795829,4.76234067 C123.643917,3.26187717 124.100579,1.56570104 124.100579,0 L126.971031,0 C126.971031,3.97949015 124.687717,8.54611819 121.360603,10.6989571 C126.514368,13.438934 127.819119,14.0913094 127.819119,14.0913094 Z M83.5880649,28.9002317 C84.0447277,28.7697567 84.6318656,28.574044 85.2190035,28.1173812 C85.1537659,27.4650058 85.1537659,26.8126304 85.2190035,26.2254925 C84.436153,27.1388181 83.9142526,28.1173812 83.5880649,28.9002317 Z" id="Shape" fill="#5D3827" fill-rule="nonzero"></path>
            <path d="M34.3619787,28.6430087 C50.6085194,29.5374451 63.1266622,29.5374451 71.9164071,28.6430087 C80.706152,27.7485722 93.2242948,25.2009027 109.470835,21" id="Path" stroke="#000000" stroke-width="2" fill-rule="nonzero"></path>
            <path d="M47.8191194,14.0913094 L48.6019699,14.4827346 L48.6019699,19.2450753 L47.1667439,19.2450753 C42.861066,19.2450753 42.1434531,21.6588644 41.0996524,26.3559676 C40.2515643,30.00927 39.3382387,34.1192352 35.293511,36.2068366 C31.7054461,42.730591 31.7054461,55.9738123 31.7054461,56.1042874 L28.8349942,56.1695249 L27.8564311,38.4249131 C24.5293163,38.9468134 21.4631518,39.012051 15.3960603,38.2292005 C8.35040556,47.2319815 10.6337196,54.3428737 10.6337196,54.4081112 L11.286095,56.3 L7.63279258,56.3 L4.56662804,37.9030127 L5.87137891,37.7073001 C6.19756663,37.6420626 7.24136732,37.3158749 7.56755504,36.5982619 C7.89374276,35.8806489 7.5023175,34.9020857 7.11089224,34.1844728 C6.58899189,33.1406721 6.13232908,32.0968714 5.80614137,31.1183082 C4.69710313,31.7054461 3.65330243,31.9011587 2.87045191,31.9011587 C1.69617613,31.9011587 0.978563152,31.5097335 0.913325608,31.5097335 L0,31.0530707 L0.19571263,30.00927 C0.260950174,29.7483198 1.36998841,23.289803 8.41564311,20.6803013 C9.78563152,19.8974508 11.4165701,19.7017381 13.3084589,20.0931634 C14.3522596,20.288876 15.4612978,20.6150637 16.5050985,20.8760139 C22.6374276,22.5069525 28.4435689,24.0726535 33.0754345,13.9608343 C33.1406721,13.7651217 33.2711472,13.569409 33.3363847,13.3736964 C33.5973349,12.721321 33.9235226,11.9384705 34.3801854,11.2208575 C30.5964079,9.39420626 27.8564311,4.30567787 27.8564311,1.73827735e-15 L30.726883,1.73827735e-15 C30.726883,1.63093859 31.2487833,3.4575898 32.1621089,5.02329085 C33.4016222,2.87045191 33.4668598,0.0652375435 33.4668598,2.31770313e-15 L36.3373117,2.31770313e-15 C36.3373117,0.260950174 36.3373117,4.43615295 33.9887601,7.5023175 C35.0325608,8.41564311 36.2068366,9.06801854 37.3811124,9.06801854 C38.6206257,9.06801854 39.7949015,8.41564311 40.8387022,7.43707995 C40.0558517,5.80614137 38.8163384,3.000927 38.8163384,5.79425782e-16 L41.6867903,5.79425782e-16 C41.6867903,1.69617613 42.2086906,3.4575898 42.7958285,4.76234067 C43.6439166,3.26187717 44.1005794,1.56570104 44.1005794,0 L46.9710313,0 C46.9710313,3.97949015 44.6877173,8.54611819 41.3606025,10.6989571 C46.5143685,13.438934 47.8191194,14.0913094 47.8191194,14.0913094 Z M3.58806489,28.9002317 C4.04472769,28.7697567 4.63186559,28.574044 5.21900348,28.1173812 C5.15376593,27.4650058 5.15376593,26.8126304 5.21900348,26.2254925 C4.43615295,27.1388181 3.91425261,28.1173812 3.58806489,28.9002317 Z" id="Shape" fill="#5D3827" fill-rule="nonzero"></path>
            <path d="M66.8191194,17.0913094 L67.6019699,17.4827346 L67.6019699,22.2450753 L66.1667439,22.2450753 C61.861066,22.2450753 61.1434531,24.6588644 60.0996524,29.3559676 C59.2515643,33.00927 58.3382387,37.1192352 54.293511,39.2068366 C50.7054461,45.730591 50.7054461,58.9738123 50.7054461,59.1042874 L47.8349942,59.1695249 L46.8564311,41.4249131 C43.5293163,41.9468134 40.4631518,42.012051 34.3960603,41.2292005 C27.3504056,50.2319815 29.6337196,57.3428737 29.6337196,57.4081112 L30.286095,59.3 L26.6327926,59.3 L23.566628,40.9030127 L24.8713789,40.7073001 C25.1975666,40.6420626 26.2413673,40.3158749 26.567555,39.5982619 C26.8937428,38.8806489 26.5023175,37.9020857 26.1108922,37.1844728 C25.5889919,36.1406721 25.1323291,35.0968714 24.8061414,34.1183082 C23.6971031,34.7054461 22.6533024,34.9011587 21.8704519,34.9011587 C20.6961761,34.9011587 19.9785632,34.5097335 19.9133256,34.5097335 L19,34.0530707 L19.1957126,33.00927 C19.2609502,32.7483198 20.3699884,26.289803 27.4156431,23.6803013 C28.7856315,22.8974508 30.4165701,22.7017381 32.3084589,23.0931634 C33.3522596,23.288876 34.4612978,23.6150637 35.5050985,23.8760139 C41.6374276,25.5069525 47.4435689,27.0726535 52.0754345,16.9608343 C52.1406721,16.7651217 52.2711472,16.569409 52.3363847,16.3736964 C52.5973349,15.721321 52.9235226,14.9384705 53.3801854,14.2208575 C49.5964079,12.3942063 46.8564311,7.30567787 46.8564311,3 L49.726883,3 C49.726883,4.63093859 50.2487833,6.4575898 51.1621089,8.02329085 C52.4016222,5.87045191 52.4668598,3.06523754 52.4668598,3 L55.3373117,3 C55.3373117,3.26095017 55.3373117,7.43615295 52.9887601,10.5023175 C54.0325608,11.4156431 55.2068366,12.0680185 56.3811124,12.0680185 C57.6206257,12.0680185 58.7949015,11.4156431 59.8387022,10.43708 C59.0558517,8.80614137 57.8163384,6.000927 57.8163384,3 L60.6867903,3 C60.6867903,4.69617613 61.2086906,6.4575898 61.7958285,7.76234067 C62.6439166,6.26187717 63.1005794,4.56570104 63.1005794,3 L65.9710313,3 C65.9710313,6.97949015 63.6877173,11.5461182 60.3606025,13.6989571 C65.5143685,16.438934 66.8191194,17.0913094 66.8191194,17.0913094 Z M22.5880649,31.9002317 C23.0447277,31.7697567 23.6318656,31.574044 24.2190035,31.1173812 C24.1537659,30.4650058 24.1537659,29.8126304 24.2190035,29.2254925 C23.436153,30.1388181 22.9142526,31.1173812 22.5880649,31.9002317 Z" id="Shape" fill="#5D3827" fill-rule="nonzero"></path>
            <g id="Group-3" transform="translate(34.361979, 21.000000)"></g>
        </g>
        <g id="Group-3" transform="translate(268.000000, 23.000000)" stroke="#000000" stroke-width="2">
            <path d="M13,12.748474 C29.2465406,13.6429104 41.7646834,13.6429104 50.5544284,12.748474 C59.3441733,11.8540375 71.8623161,9.30636799 88.1088567,5.1054653" id="Path-2"></path>
            <path d="M0,7.64300866 C16.2465406,8.53744508 28.7646834,8.53744508 37.5544284,7.64300866 C46.3441733,6.74857225 58.8623161,4.20090269 75.1088567,0" id="Path-2"></path>
        </g>
        <g id="Group-2" transform="translate(236.000000, 3.000000)" fill="#5D3827" fill-rule="nonzero">
            <path d="M47.8191194,14.0913094 L48.6019699,14.4827346 L48.6019699,19.2450753 L47.1667439,19.2450753 C42.861066,19.2450753 42.1434531,21.6588644 41.0996524,26.3559676 C40.2515643,30.00927 39.3382387,34.1192352 35.293511,36.2068366 C31.7054461,42.730591 31.7054461,55.9738123 31.7054461,56.1042874 L28.8349942,56.1695249 L27.8564311,38.4249131 C24.5293163,38.9468134 21.4631518,39.012051 15.3960603,38.2292005 C8.35040556,47.2319815 10.6337196,54.3428737 10.6337196,54.4081112 L11.286095,56.3 L7.63279258,56.3 L4.56662804,37.9030127 L5.87137891,37.7073001 C6.19756663,37.6420626 7.24136732,37.3158749 7.56755504,36.5982619 C7.89374276,35.8806489 7.5023175,34.9020857 7.11089224,34.1844728 C6.58899189,33.1406721 6.13232908,32.0968714 5.80614137,31.1183082 C4.69710313,31.7054461 3.65330243,31.9011587 2.87045191,31.9011587 C1.69617613,31.9011587 0.978563152,31.5097335 0.913325608,31.5097335 L0,31.0530707 L0.19571263,30.00927 C0.260950174,29.7483198 1.36998841,23.289803 8.41564311,20.6803013 C9.78563152,19.8974508 11.4165701,19.7017381 13.3084589,20.0931634 C14.3522596,20.288876 15.4612978,20.6150637 16.5050985,20.8760139 C22.6374276,22.5069525 28.4435689,24.0726535 33.0754345,13.9608343 C33.1406721,13.7651217 33.2711472,13.569409 33.3363847,13.3736964 C33.5973349,12.721321 33.9235226,11.9384705 34.3801854,11.2208575 C30.5964079,9.39420626 27.8564311,4.30567787 27.8564311,1.73827735e-15 L30.726883,1.73827735e-15 C30.726883,1.63093859 31.2487833,3.4575898 32.1621089,5.02329085 C33.4016222,2.87045191 33.4668598,0.0652375435 33.4668598,2.31770313e-15 L36.3373117,2.31770313e-15 C36.3373117,0.260950174 36.3373117,4.43615295 33.9887601,7.5023175 C35.0325608,8.41564311 36.2068366,9.06801854 37.3811124,9.06801854 C38.6206257,9.06801854 39.7949015,8.41564311 40.8387022,7.43707995 C40.0558517,5.80614137 38.8163384,3.000927 38.8163384,5.79425782e-16 L41.6867903,5.79425782e-16 C41.6867903,1.69617613 42.2086906,3.4575898 42.7958285,4.76234067 C43.6439166,3.26187717 44.1005794,1.56570104 44.1005794,0 L46.9710313,0 C46.9710313,3.97949015 44.6877173,8.54611819 41.3606025,10.6989571 C46.5143685,13.438934 47.8191194,14.0913094 47.8191194,14.0913094 Z M3.58806489,28.9002317 C4.04472769,28.7697567 4.63186559,28.574044 5.21900348,28.1173812 C5.15376593,27.4650058 5.15376593,26.8126304 5.21900348,26.2254925 C4.43615295,27.1388181 3.91425261,28.1173812 3.58806489,28.9002317 Z" id="Shape"></path>
            <path d="M66.8191194,17.0913094 L67.6019699,17.4827346 L67.6019699,22.2450753 L66.1667439,22.2450753 C61.861066,22.2450753 61.1434531,24.6588644 60.0996524,29.3559676 C59.2515643,33.00927 58.3382387,37.1192352 54.293511,39.2068366 C50.7054461,45.730591 50.7054461,58.9738123 50.7054461,59.1042874 L47.8349942,59.1695249 L46.8564311,41.4249131 C43.5293163,41.9468134 40.4631518,42.012051 34.3960603,41.2292005 C27.3504056,50.2319815 29.6337196,57.3428737 29.6337196,57.4081112 L30.286095,59.3 L26.6327926,59.3 L23.566628,40.9030127 L24.8713789,40.7073001 C25.1975666,40.6420626 26.2413673,40.3158749 26.567555,39.5982619 C26.8937428,38.8806489 26.5023175,37.9020857 26.1108922,37.1844728 C25.5889919,36.1406721 25.1323291,35.0968714 24.8061414,34.1183082 C23.6971031,34.7054461 22.6533024,34.9011587 21.8704519,34.9011587 C20.6961761,34.9011587 19.9785632,34.5097335 19.9133256,34.5097335 L19,34.0530707 L19.1957126,33.00927 C19.2609502,32.7483198 20.3699884,26.289803 27.4156431,23.6803013 C28.7856315,22.8974508 30.4165701,22.7017381 32.3084589,23.0931634 C33.3522596,23.288876 34.4612978,23.6150637 35.5050985,23.8760139 C41.6374276,25.5069525 47.4435689,27.0726535 52.0754345,16.9608343 C52.1406721,16.7651217 52.2711472,16.569409 52.3363847,16.3736964 C52.5973349,15.721321 52.9235226,14.9384705 53.3801854,14.2208575 C49.5964079,12.3942063 46.8564311,7.30567787 46.8564311,3 L49.726883,3 C49.726883,4.63093859 50.2487833,6.4575898 51.1621089,8.02329085 C52.4016222,5.87045191 52.4668598,3.06523754 52.4668598,3 L55.3373117,3 C55.3373117,3.26095017 55.3373117,7.43615295 52.9887601,10.5023175 C54.0325608,11.4156431 55.2068366,12.0680185 56.3811124,12.0680185 C57.6206257,12.0680185 58.7949015,11.4156431 59.8387022,10.43708 C59.0558517,8.80614137 57.8163384,6.000927 57.8163384,3 L60.6867903,3 C60.6867903,4.69617613 61.2086906,6.4575898 61.7958285,7.76234067 C62.6439166,6.26187717 63.1005794,4.56570104 63.1005794,3 L65.9710313,3 C65.9710313,6.97949015 63.6877173,11.5461182 60.3606025,13.6989571 C65.5143685,16.438934 66.8191194,17.0913094 66.8191194,17.0913094 Z M22.5880649,31.9002317 C23.0447277,31.7697567 23.6318656,31.574044 24.2190035,31.1173812 C24.1537659,30.4650058 24.1537659,29.8126304 24.2190035,29.2254925 C23.436153,30.1388181 22.9142526,31.1173812 22.5880649,31.9002317 Z" id="Shape"></path>
        </g>
        <g id="Group-3" transform="translate(191.000000, 23.000000)" stroke="#000000" stroke-width="2">
            <path d="M13,12.748474 C29.2465406,13.6429104 41.7646834,13.6429104 50.5544284,12.748474 C59.3441733,11.8540375 71.8623161,9.30636799 88.1088567,5.1054653" id="Path-2"></path>
            <path d="M0,7.64300866 C16.2465406,8.53744508 28.7646834,8.53744508 37.5544284,7.64300866 C46.3441733,6.74857225 58.8623161,4.20090269 75.1088567,0" id="Path-2"></path>
        </g>
        <g id="Group-2" transform="translate(159.000000, 5.000000)" fill="#5D3827" fill-rule="nonzero">
            <path d="M47.8191194,14.0913094 L48.6019699,14.4827346 L48.6019699,19.2450753 L47.1667439,19.2450753 C42.861066,19.2450753 42.1434531,21.6588644 41.0996524,26.3559676 C40.2515643,30.00927 39.3382387,34.1192352 35.293511,36.2068366 C31.7054461,42.730591 31.7054461,55.9738123 31.7054461,56.1042874 L28.8349942,56.1695249 L27.8564311,38.4249131 C24.5293163,38.9468134 21.4631518,39.012051 15.3960603,38.2292005 C8.35040556,47.2319815 10.6337196,54.3428737 10.6337196,54.4081112 L11.286095,56.3 L7.63279258,56.3 L4.56662804,37.9030127 L5.87137891,37.7073001 C6.19756663,37.6420626 7.24136732,37.3158749 7.56755504,36.5982619 C7.89374276,35.8806489 7.5023175,34.9020857 7.11089224,34.1844728 C6.58899189,33.1406721 6.13232908,32.0968714 5.80614137,31.1183082 C4.69710313,31.7054461 3.65330243,31.9011587 2.87045191,31.9011587 C1.69617613,31.9011587 0.978563152,31.5097335 0.913325608,31.5097335 L0,31.0530707 L0.19571263,30.00927 C0.260950174,29.7483198 1.36998841,23.289803 8.41564311,20.6803013 C9.78563152,19.8974508 11.4165701,19.7017381 13.3084589,20.0931634 C14.3522596,20.288876 15.4612978,20.6150637 16.5050985,20.8760139 C22.6374276,22.5069525 28.4435689,24.0726535 33.0754345,13.9608343 C33.1406721,13.7651217 33.2711472,13.569409 33.3363847,13.3736964 C33.5973349,12.721321 33.9235226,11.9384705 34.3801854,11.2208575 C30.5964079,9.39420626 27.8564311,4.30567787 27.8564311,1.73827735e-15 L30.726883,1.73827735e-15 C30.726883,1.63093859 31.2487833,3.4575898 32.1621089,5.02329085 C33.4016222,2.87045191 33.4668598,0.0652375435 33.4668598,2.31770313e-15 L36.3373117,2.31770313e-15 C36.3373117,0.260950174 36.3373117,4.43615295 33.9887601,7.5023175 C35.0325608,8.41564311 36.2068366,9.06801854 37.3811124,9.06801854 C38.6206257,9.06801854 39.7949015,8.41564311 40.8387022,7.43707995 C40.0558517,5.80614137 38.8163384,3.000927 38.8163384,5.79425782e-16 L41.6867903,5.79425782e-16 C41.6867903,1.69617613 42.2086906,3.4575898 42.7958285,4.76234067 C43.6439166,3.26187717 44.1005794,1.56570104 44.1005794,0 L46.9710313,0 C46.9710313,3.97949015 44.6877173,8.54611819 41.3606025,10.6989571 C46.5143685,13.438934 47.8191194,14.0913094 47.8191194,14.0913094 Z M3.58806489,28.9002317 C4.04472769,28.7697567 4.63186559,28.574044 5.21900348,28.1173812 C5.15376593,27.4650058 5.15376593,26.8126304 5.21900348,26.2254925 C4.43615295,27.1388181 3.91425261,28.1173812 3.58806489,28.9002317 Z" id="Shape"></path>
            <path d="M66.8191194,17.0913094 L67.6019699,17.4827346 L67.6019699,22.2450753 L66.1667439,22.2450753 C61.861066,22.2450753 61.1434531,24.6588644 60.0996524,29.3559676 C59.2515643,33.00927 58.3382387,37.1192352 54.293511,39.2068366 C50.7054461,45.730591 50.7054461,58.9738123 50.7054461,59.1042874 L47.8349942,59.1695249 L46.8564311,41.4249131 C43.5293163,41.9468134 40.4631518,42.012051 34.3960603,41.2292005 C27.3504056,50.2319815 29.6337196,57.3428737 29.6337196,57.4081112 L30.286095,59.3 L26.6327926,59.3 L23.566628,40.9030127 L24.8713789,40.7073001 C25.1975666,40.6420626 26.2413673,40.3158749 26.567555,39.5982619 C26.8937428,38.8806489 26.5023175,37.9020857 26.1108922,37.1844728 C25.5889919,36.1406721 25.1323291,35.0968714 24.8061414,34.1183082 C23.6971031,34.7054461 22.6533024,34.9011587 21.8704519,34.9011587 C20.6961761,34.9011587 19.9785632,34.5097335 19.9133256,34.5097335 L19,34.0530707 L19.1957126,33.00927 C19.2609502,32.7483198 20.3699884,26.289803 27.4156431,23.6803013 C28.7856315,22.8974508 30.4165701,22.7017381 32.3084589,23.0931634 C33.3522596,23.288876 34.4612978,23.6150637 35.5050985,23.8760139 C41.6374276,25.5069525 47.4435689,27.0726535 52.0754345,16.9608343 C52.1406721,16.7651217 52.2711472,16.569409 52.3363847,16.3736964 C52.5973349,15.721321 52.9235226,14.9384705 53.3801854,14.2208575 C49.5964079,12.3942063 46.8564311,7.30567787 46.8564311,3 L49.726883,3 C49.726883,4.63093859 50.2487833,6.4575898 51.1621089,8.02329085 C52.4016222,5.87045191 52.4668598,3.06523754 52.4668598,3 L55.3373117,3 C55.3373117,3.26095017 55.3373117,7.43615295 52.9887601,10.5023175 C54.0325608,11.4156431 55.2068366,12.0680185 56.3811124,12.0680185 C57.6206257,12.0680185 58.7949015,11.4156431 59.8387022,10.43708 C59.0558517,8.80614137 57.8163384,6.000927 57.8163384,3 L60.6867903,3 C60.6867903,4.69617613 61.2086906,6.4575898 61.7958285,7.76234067 C62.6439166,6.26187717 63.1005794,4.56570104 63.1005794,3 L65.9710313,3 C65.9710313,6.97949015 63.6877173,11.5461182 60.3606025,13.6989571 C65.5143685,16.438934 66.8191194,17.0913094 66.8191194,17.0913094 Z M22.5880649,31.9002317 C23.0447277,31.7697567 23.6318656,31.574044 24.2190035,31.1173812 C24.1537659,30.4650058 24.1537659,29.8126304 24.2190035,29.2254925 C23.436153,30.1388181 22.9142526,31.1173812 22.5880649,31.9002317 Z" id="Shape"></path>
        </g>
        <g id="Group-3" transform="translate(114.000000, 27.000000)" stroke="#000000" stroke-width="2">
            <path d="M13,12.748474 C29.2465406,13.6429104 41.7646834,13.6429104 50.5544284,12.748474 C59.3441733,11.8540375 71.8623161,9.30636799 88.1088567,5.1054653" id="Path-2"></path>
            <path d="M0,7.64300866 C16.2465406,8.53744508 28.7646834,8.53744508 37.5544284,7.64300866 C46.3441733,6.74857225 58.8623161,4.20090269 75.1088567,0" id="Path-2"></path>
        </g>
        <g id="Group-2" transform="translate(82.000000, 5.000000)" fill="#5D3827" fill-rule="nonzero">
            <path d="M47.8191194,14.0913094 L48.6019699,14.4827346 L48.6019699,19.2450753 L47.1667439,19.2450753 C42.861066,19.2450753 42.1434531,21.6588644 41.0996524,26.3559676 C40.2515643,30.00927 39.3382387,34.1192352 35.293511,36.2068366 C31.7054461,42.730591 31.7054461,55.9738123 31.7054461,56.1042874 L28.8349942,56.1695249 L27.8564311,38.4249131 C24.5293163,38.9468134 21.4631518,39.012051 15.3960603,38.2292005 C8.35040556,47.2319815 10.6337196,54.3428737 10.6337196,54.4081112 L11.286095,56.3 L7.63279258,56.3 L4.56662804,37.9030127 L5.87137891,37.7073001 C6.19756663,37.6420626 7.24136732,37.3158749 7.56755504,36.5982619 C7.89374276,35.8806489 7.5023175,34.9020857 7.11089224,34.1844728 C6.58899189,33.1406721 6.13232908,32.0968714 5.80614137,31.1183082 C4.69710313,31.7054461 3.65330243,31.9011587 2.87045191,31.9011587 C1.69617613,31.9011587 0.978563152,31.5097335 0.913325608,31.5097335 L0,31.0530707 L0.19571263,30.00927 C0.260950174,29.7483198 1.36998841,23.289803 8.41564311,20.6803013 C9.78563152,19.8974508 11.4165701,19.7017381 13.3084589,20.0931634 C14.3522596,20.288876 15.4612978,20.6150637 16.5050985,20.8760139 C22.6374276,22.5069525 28.4435689,24.0726535 33.0754345,13.9608343 C33.1406721,13.7651217 33.2711472,13.569409 33.3363847,13.3736964 C33.5973349,12.721321 33.9235226,11.9384705 34.3801854,11.2208575 C30.5964079,9.39420626 27.8564311,4.30567787 27.8564311,1.73827735e-15 L30.726883,1.73827735e-15 C30.726883,1.63093859 31.2487833,3.4575898 32.1621089,5.02329085 C33.4016222,2.87045191 33.4668598,0.0652375435 33.4668598,2.31770313e-15 L36.3373117,2.31770313e-15 C36.3373117,0.260950174 36.3373117,4.43615295 33.9887601,7.5023175 C35.0325608,8.41564311 36.2068366,9.06801854 37.3811124,9.06801854 C38.6206257,9.06801854 39.7949015,8.41564311 40.8387022,7.43707995 C40.0558517,5.80614137 38.8163384,3.000927 38.8163384,5.79425782e-16 L41.6867903,5.79425782e-16 C41.6867903,1.69617613 42.2086906,3.4575898 42.7958285,4.76234067 C43.6439166,3.26187717 44.1005794,1.56570104 44.1005794,0 L46.9710313,0 C46.9710313,3.97949015 44.6877173,8.54611819 41.3606025,10.6989571 C46.5143685,13.438934 47.8191194,14.0913094 47.8191194,14.0913094 Z M3.58806489,28.9002317 C4.04472769,28.7697567 4.63186559,28.574044 5.21900348,28.1173812 C5.15376593,27.4650058 5.15376593,26.8126304 5.21900348,26.2254925 C4.43615295,27.1388181 3.91425261,28.1173812 3.58806489,28.9002317 Z" id="Shape"></path>
            <path d="M66.8191194,17.0913094 L67.6019699,17.4827346 L67.6019699,22.2450753 L66.1667439,22.2450753 C61.861066,22.2450753 61.1434531,24.6588644 60.0996524,29.3559676 C59.2515643,33.00927 58.3382387,37.1192352 54.293511,39.2068366 C50.7054461,45.730591 50.7054461,58.9738123 50.7054461,59.1042874 L47.8349942,59.1695249 L46.8564311,41.4249131 C43.5293163,41.9468134 40.4631518,42.012051 34.3960603,41.2292005 C27.3504056,50.2319815 29.6337196,57.3428737 29.6337196,57.4081112 L30.286095,59.3 L26.6327926,59.3 L23.566628,40.9030127 L24.8713789,40.7073001 C25.1975666,40.6420626 26.2413673,40.3158749 26.567555,39.5982619 C26.8937428,38.8806489 26.5023175,37.9020857 26.1108922,37.1844728 C25.5889919,36.1406721 25.1323291,35.0968714 24.8061414,34.1183082 C23.6971031,34.7054461 22.6533024,34.9011587 21.8704519,34.9011587 C20.6961761,34.9011587 19.9785632,34.5097335 19.9133256,34.5097335 L19,34.0530707 L19.1957126,33.00927 C19.2609502,32.7483198 20.3699884,26.289803 27.4156431,23.6803013 C28.7856315,22.8974508 30.4165701,22.7017381 32.3084589,23.0931634 C33.3522596,23.288876 34.4612978,23.6150637 35.5050985,23.8760139 C41.6374276,25.5069525 47.4435689,27.0726535 52.0754345,16.9608343 C52.1406721,16.7651217 52.2711472,16.569409 52.3363847,16.3736964 C52.5973349,15.721321 52.9235226,14.9384705 53.3801854,14.2208575 C49.5964079,12.3942063 46.8564311,7.30567787 46.8564311,3 L49.726883,3 C49.726883,4.63093859 50.2487833,6.4575898 51.1621089,8.02329085 C52.4016222,5.87045191 52.4668598,3.06523754 52.4668598,3 L55.3373117,3 C55.3373117,3.26095017 55.3373117,7.43615295 52.9887601,10.5023175 C54.0325608,11.4156431 55.2068366,12.0680185 56.3811124,12.0680185 C57.6206257,12.0680185 58.7949015,11.4156431 59.8387022,10.43708 C59.0558517,8.80614137 57.8163384,6.000927 57.8163384,3 L60.6867903,3 C60.6867903,4.69617613 61.2086906,6.4575898 61.7958285,7.76234067 C62.6439166,6.26187717 63.1005794,4.56570104 63.1005794,3 L65.9710313,3 C65.9710313,6.97949015 63.6877173,11.5461182 60.3606025,13.6989571 C65.5143685,16.438934 66.8191194,17.0913094 66.8191194,17.0913094 Z M22.5880649,31.9002317 C23.0447277,31.7697567 23.6318656,31.574044 24.2190035,31.1173812 C24.1537659,30.4650058 24.1537659,29.8126304 24.2190035,29.2254925 C23.436153,30.1388181 22.9142526,31.1173812 22.5880649,31.9002317 Z" id="Shape"></path>
            <path d="M64.6662804,19.3746234 C59.1863268,20.0922364 58.0772885,24.7893395 57.2292005,28.7035921 C56.4463499,32.1611819 55.728737,35.3578216 52.6625724,36.7930475 L52.2711472,36.9887601 L52.010197,37.3801854 C51.0968714,38.8806489 50.3792584,40.7725377 49.8573581,42.729664 L49.5964079,37.9673233 L47.9654693,38.293511 C44.1164542,39.0763615 41.1807648,39.2720742 34.004635,38.293511 L33.2217845,38.1630359 L32.6998841,38.8154114 C30.0903824,42.012051 28.5246813,45.012978 27.6113557,47.6877173 L26.8285052,43.1210892 C27.6765933,42.729664 28.6551564,42.0772885 29.2422943,40.9030127 C29.9599073,39.4677868 29.7641947,37.7716107 28.720394,35.8797219 C26.567555,31.9002317 26.7632677,28.573117 27.9375435,27.007416 C28.9161066,25.7026651 30.5470452,25.7026651 31.721321,25.9636153 C32.6998841,26.1593279 33.6784473,26.4202781 34.7874855,26.7464658 C41.1807648,28.4426419 49.0745075,30.5954809 54.7501738,18.2655852 C54.8154114,18.0698725 54.9458864,17.8741599 55.011124,17.6132097 C55.7939745,15.6560834 56.2506373,15.1341831 56.5115875,15.1341831 C56.5115875,15.1341831 56.576825,15.1341831 56.7073001,15.1994206 C61.3391657,17.6784473 63.6224797,18.8527231 64.6662804,19.439861 L64.6662804,19.3746234 Z" id="Path"></path>
        </g>
        <g id="Group-3" transform="translate(36.000000, 27.000000)" stroke="#000000" stroke-width="2">
            <path d="M13,12.748474 C29.2465406,13.6429104 41.7646834,13.6429104 50.5544284,12.748474 C59.3441733,11.8540375 71.8623161,9.30636799 88.1088567,5.1054653" id="Path-2"></path>
            <path d="M0,7.64300866 C16.2465406,8.53744508 28.7646834,8.53744508 37.5544284,7.64300866 C46.3441733,6.74857225 58.8623161,4.20090269 75.1088567,0" id="Path-2"></path>
        </g>
        <path d="M56,47.1170979 L54,47.1170979 C53.4477153,47.1170979 53,47.5619006 53,48.1105925 C53,48.6592843 53.4477153,49.104087 54,49.104087 L56,49.104087 C59.8659932,49.104087 63,52.2177057 63,56.0585489 C63,59.8993922 59.8659932,63.0130109 56,63.0130109 L44.66,63.0130109 L42.32,57.5785956 C44.8834299,56.7443692 46.9350699,54.8118193 47.91,52.3130744 L50.91,44.4942722 C51.029724,44.1872099 50.9885257,43.8411622 50.8,43.5703223 C50.6175579,43.3088846 50.3201314,43.1500578 50,43.1431196 L43.8,43.1431196 C45.9563624,37.5017586 45.1797898,31.1673785 41.7234697,26.2051888 C38.2671495,21.2429991 32.5739368,18.2888005 26.5,18.3057556 L26.28,18.3057556 L28,11.5897324 C28.099457,11.1828609 27.9314832,10.7577116 27.58,10.5266932 L26.15,9.53319862 C24.8364275,8.6796489 23.0988878,8.86683115 22,9.98027117 L21.49,10.4869534 C21.0968277,10.8768957 20.4965307,10.9729588 20,10.7253921 L19.52,10.4869534 C18.7370965,10.0909684 17.8273018,10.0225137 16.9933001,10.2968395 C16.1592985,10.5711654 15.470372,11.1654831 15.08,11.9473904 L14.93,12.2553737 C14.6578084,12.7923426 14.0464968,13.069155 13.46,12.9210151 C12.6111851,12.7078767 11.7118682,12.8396495 10.9611276,13.2871635 C10.210387,13.7346776 9.67014757,14.4610195 9.46,15.305402 L9,17.0738223 C8.89100448,17.5044599 9.08287978,17.9546642 9.47,18.1766013 L15.75,21.7333118 C12.1823812,24.2716834 9.63788765,27.9861363 8.57,32.2146795 L6,32.2146795 C5.71277285,32.2150408 5.43956984,32.3380871 5.25,32.5524676 C5.0627214,32.7651167 4.97544156,33.0469308 5.01,33.3273934 L8.01,57.1712629 C8.07057605,57.6691715 8.49518533,58.0441466 9,58.0455381 L14.67,58.0455381 L13.25,63.0130109 L6,63.0130109 C5.44771525,63.0130109 5,63.4578135 5,64.0065054 C5,64.5551973 5.44771525,65 6,65 L56,65 C60.9705627,65 65,60.996776 65,56.0585489 C65,51.1203219 60.9705627,47.1170979 56,47.1170979 Z M11.15,16.8254487 L11.42,15.8319541 C11.4911164,15.4893513 11.7001014,15.1905172 11.9984717,15.0047799 C12.296842,14.8190426 12.6586652,14.7625451 13,14.8483945 C14.4914799,15.2320343 16.049143,14.5225769 16.73,13.1495188 L16.89,12.8316006 C17.2111094,12.2015103 17.9847836,11.9482587 18.62,12.2653087 L19.1,12.5037474 C20.3654001,13.1282657 21.8908672,12.8803404 22.89,11.8877807 L23.38,11.3512937 C23.8230245,10.936872 24.4961255,10.8832091 25,11.2221394 L25.85,11.7884313 L24.17,18.4647147 C22.0786772,18.7367515 20.0494945,19.3617059 18.17,20.3126146 C17.9447205,20.2748867 17.7133446,20.3208608 17.52,20.4417689 C17.52,20.4417689 17.52,20.4417689 17.52,20.4417689 L11.15,16.8254487 Z M15.7,24.3263326 C15.0580293,26.4219438 15.203722,28.6778454 16.11,30.6747629 C16.2794502,31.0088549 16.6234418,31.220051 17,31.2211849 C17.1568771,31.2230498 17.3116796,31.1854554 17.45,31.1119005 C17.940313,30.8639485 18.1369243,30.2690729 17.89,29.7806178 C16.52,27.0385728 17.89,23.6209515 18.58,22.3294086 C19.2245882,21.9705606 19.8927662,21.6552408 20.58,21.3855887 C21.7384906,22.9001592 22.5630399,24.6400814 23,26.4921508 C23.0857437,26.8470922 23.3555731,27.1296254 23.7078461,27.233323 C24.060119,27.3370205 24.4413169,27.2461282 24.7078461,26.9948843 C24.9743753,26.7436404 25.0857437,26.3702148 25,26.0152734 C24.5479952,24.1383859 23.7586724,22.3579764 22.67,20.7596872 C23.4519513,20.5670177 24.2476139,20.4341629 25.05,20.3622893 C26.77,21.0080608 30.4,22.8658956 31.05,25.4986562 C31.1825484,26.0336308 31.7265224,26.3605607 32.265,26.2288747 C32.8034776,26.0971886 33.1325483,25.5567534 33,25.0217788 C32.429802,23.2058162 31.2466015,21.6408178 29.65,20.5907931 C34.5522663,21.5268827 38.7620517,24.6226637 41.0950636,29.0072342 C43.4280755,33.3918047 43.6321952,38.5913428 41.65,43.1431196 L38,43.1431196 C37.4477153,43.1431196 37,43.5879223 37,44.1366142 L37,45.8454249 C37.0004189,47.7164582 36.1165677,49.479125 34.6130113,50.6058025 C33.1094549,51.7324799 31.1606735,52.0924227 29.35,51.5778885 L28.53,51.3394498 C26.3035739,50.7076501 24.6417705,48.8594663 24.26,46.5905458 L23.5,42.0800805 C22.5580652,36.3806219 17.5935791,32.2017272 11.78,32.2146795 L10.63,32.2146795 C11.5071103,29.1492039 13.2698488,26.4065822 15.7,24.3263326 Z M7.13,34.2016251 L11.78,34.2016686 C16.6173445,34.1874363 20.7491672,37.6650602 21.53,42.4079337 L22.29,46.918399 C22.799379,49.9504925 25.023025,52.4188935 28,53.2568943 L28.82,53.485398 C31.2309721,54.1637881 33.8226021,53.680668 35.822047,52.1801075 C37.8214919,50.679547 38.9977306,48.334925 39,45.8454249 L39,45.1301088 L48.54,45.1301088 L46,51.5977584 C44.9669087,54.2699777 42.3912357,56.0403225 39.51,56.0585489 L9.88,56.0585489 L7.13,34.2016251 Z M16.75,58.0455381 L39.51,58.0455381 C39.78,58.0455381 40.05,58.0455381 40.31,57.9859284 L42.48,63.0130109 L15.33,63.0130109 L16.75,58.0455381 Z" id="Shape" fill="#000000" fill-rule="nonzero"></path>
        <path d="M16.0115455,24.0339465 C15.3769764,26.1665123 15.5209893,28.4621952 16.4168184,30.494327 C16.584315,30.8343105 16.9243405,31.0492309 17.2965571,31.0503848 C17.4516256,31.0522826 17.6046432,31.0140252 17.7413689,30.9391732 C18.2260288,30.6868487 18.4203733,30.081483 18.1762959,29.5844143 C16.8220913,26.7940152 18.1762959,23.3161265 18.8583405,22.001808 C19.495497,21.636632 20.1559713,21.3157517 20.8352816,21.0413446 C21.9804154,22.5826234 22.795458,24.353228 23.2273802,26.2379574 C23.3121354,26.5991579 23.5788538,26.8866735 23.9270652,26.9921996 C24.2752766,27.0977258 24.6520794,27.0052306 24.9155357,26.7495562 C25.178992,26.4938818 25.2890764,26.1138712 25.2043212,25.7526706 C24.7575278,23.8426854 23.9773055,22.0308796 22.9011849,20.4044057 C23.6741207,20.2083386 24.4606098,20.073141 25.2537447,20 C26.953914,20.6571592 30.542062,22.5477557 31.1845678,25.2269432 C31.3155879,25.7713517 31.8532902,26.1040468 32.3855595,25.9700386 C32.9178287,25.8360303 33.2431054,25.2860649 33.1120853,24.7416564 C32.5484614,22.8936705 31.3789026,21.3010745 29.8007091,20.2325333 C34.6464548,21.1851302 38.8077034,24.3355032 41.1138169,28.7973926 C43.4199303,33.259282 43.6216967,38.5505104 41.6623552,43.1825547 L38.0544378,43.1825547 C37.5085206,43.1825547 37.0659673,43.6352012 37.0659673,44.1935689 L37.0659673,45.9325132 C37.0663814,47.836541 36.1927205,49.6302913 34.7064994,50.7768369 C33.2202782,51.9233825 31.2939653,52.2896727 29.5041679,51.766065 L28.6936221,51.5234216 C26.4928656,50.8804806 24.8502219,48.9997053 24.472853,46.6907739 L23.7216155,42.1007696 C22.7905407,36.3008049 17.8832926,32.0482182 12.1367411,32.0613989 L11,32.0613989 C11.8669977,28.9418659 13.6094127,26.1508799 16.0115455,24.0339465 Z" id="Path" fill="#D4CAB4" fill-rule="nonzero"></path>
        <path d="M11,17.1698467 L11.2755102,16.1176068 C11.3480779,15.7547459 11.561328,15.4382417 11.8657875,15.2415218 C12.1702469,15.0448018 12.5394542,14.9849636 12.8877551,15.0758893 C14.4096733,15.4822137 15.9991255,14.7308061 16.6938776,13.2765591 L16.8571429,12.9398423 C17.1848056,12.2724948 17.974269,12.0042684 18.622449,12.3400656 L19.1122449,12.5926031 C20.4034695,13.2540492 21.9600686,12.9914641 22.9795918,11.9402144 L23.4795918,11.3720049 C23.9316577,10.9330784 24.6184954,10.8762424 25.1326531,11.2352137 L26,11.8349904 L24.2857143,18.9060426 C22.1517114,19.1941649 20.0811169,19.8560729 18.1632653,20.8632088 C17.9333882,20.82325 17.6972904,20.8719426 17.5,21 C17.5,21 17.5,21 17.5,21 L11,17.1698467 Z" id="Path" fill="#D4CAB4" fill-rule="nonzero"></path>
        <path d="M58.9872603,17.765828 C59.0642034,17.0002658 58.789841,16.2409073 58.2394097,15.6959866 C57.8335985,15.2694261 57.2637767,15.0322166 56.6709089,15.0430398 C55.6572313,15.1395697 54.6993785,15.5458818 53.9309961,16.2052852 C53.7629645,15.8603506 53.4182089,15.6327596 53.0309281,15.6111036 C52.6404575,15.6111036 51.8396617,15.6111036 51.4756636,19.1108984 L50.9329756,19.1696637 L49.6093462,20.4755573 L50.4299964,21.4876248 C49.7161212,22.5083327 48.942699,23.4872281 48.113645,24.419356 C47.7522798,24.8571323 47.254344,25.164746 46.6973616,25.2943047 L46.6973616,25.1114796 C47.2003407,20.4429099 43.2360707,18.5820115 42.1506947,18.1314782 L40.4630672,15.0495693 C40.5160124,12.5291946 40.1652506,11.837071 39.8608158,11.5236566 C39.724577,11.3791398 39.5425067,11.2847186 39.3446004,11.2559484 L38.1467158,10.916416 L37.2135571,9.45381517 L43.5405055,8.51357177 L44.2023202,6.17602221 L43.7059592,5.94096136 C39.3512185,3.91029679 36.2473076,3.00270073 33.6529941,3.00270073 C31.5880407,2.95007094 29.5790296,3.66828766 28.0275692,5.01377689 C24.8574769,7.74309454 24.3809703,12.770785 24.3147888,14.2464447 L23.5206112,14.6382128 L23.421339,14.8406263 C22.6403977,16.4795228 23.8647548,18.4448927 24.3015525,19.0586627 L24.3015525,19.6006085 C22.9056487,19.777776 21.6580524,20.5482683 20.8865887,21.7096267 C20.2180392,23.0126722 20.1129849,24.5273256 20.5953903,25.9080747 C20.5225907,26.1757829 20.3836096,26.2019008 19.9335756,26.2541365 C19.8210671,26.2541365 19.7019405,26.2541365 19.589432,26.3063722 C18.191195,25.131353 16.8755613,23.8638891 15.6516346,22.5127513 L16.6443566,21.4419185 L15.2148369,19.4830781 L14.6125855,19.8421989 C13.9176801,17.2304116 13.374992,16.649289 12.7131773,16.649289 C12.1638712,16.649289 11.7667823,17.0998223 11.5285291,17.9943594 C9.6291209,16.9953508 8.10694712,17.2173527 7.38556911,18.4448927 C6.91175755,19.290805 6.87247156,20.3082441 7.27967876,21.1872693 C7.78265792,22.0556885 9.66221164,22.8522836 10.8799507,23.2962875 L10.4100622,23.9492343 L12.1638712,25.7187201 L12.9911395,25.0265965 C14.1179054,26.2310156 15.3322508,27.3527096 16.6245022,28.3827431 C17.835623,29.3556338 18.014313,29.8518734 18.0407856,29.9955217 L17.9613678,30.0346985 L17.8620956,30.2109942 C15.6979616,34.0503214 16.5384662,39.3130726 16.5384662,39.4958977 C17.385589,47.6512034 23.6993012,51.3730001 27.4650267,53.547313 C28.7290928,54.2851429 30.0328677,55.0490907 30.1917033,55.5061534 C30.7447534,57.6261049 31.1865507,59.7728015 31.5153326,61.9376795 C29.1261816,62.4665664 28.7952743,64.1511692 28.782038,64.2295228 L28.6430569,64.9934705 L35.0295686,64.9934705 L34.6258617,55.290681 L35.0758956,55.290681 L35.0758956,65 L41.4690255,65 L41.3035719,64.2099344 C40.9594282,62.5906263 39.3181278,62.1139751 38.3982054,61.9768563 C38.4380458,60.0139282 38.7384192,58.0646125 39.2916552,56.1786886 C39.642417,55.2384452 40.2711409,54.7030289 41.938914,53.2730754 C43.0044356,52.3720088 44.4604279,51.1314098 46.4723446,49.250923 C51.9918791,44.1057022 51.6080266,34.7359155 49.8409813,31.1316491 C48.9012045,29.2315739 49.0401856,28.4284494 49.1791666,28.2652127 L49.2254937,28.2652127 C50.8789781,27.2489143 52.2773735,25.8759539 53.3155084,24.2495898 L53.9773231,24.8503009 L56.0620394,22.467045 L55.7443683,21.9250992 C57.7695213,20.4167921 58.8482792,19.0521332 58.9872603,17.765828 Z" id="Path" fill="#FFFFFF"></path>
        <path d="M29.2352481,5.60079195 C30.5458939,4.53253651 32.2385686,3.96198183 33.9785072,4.0019681 C36.2770614,4.0019681 39.0805002,4.75800109 43,6.48076477 L42.8737788,6.91455418 L35.3802267,7.93705781 L37.0476749,10.4158545 L26,13 C26.1461508,11.3577972 26.7373974,7.61481424 29.2352481,5.60079195 Z" id="Path" stroke="#FF0000" fill="#FF0000"></path>
        <path d="M8.10357468,20.2052174 C7.93548866,19.7021263 7.97325666,19.1465616 8.20761559,18.6747826 C8.36751241,18.3635059 8.68292593,18.1811829 9.01393264,18.2086957 C9.82506515,18.3088229 10.593483,18.6511485 11.2313045,19.1965217 L12.1156523,19.8295652 L12.2326983,18.6956522 C12.2599493,18.4616782 12.2990219,18.2294542 12.3497443,18 C12.615767,18.7600933 12.833023,19.5387115 13,20.3304348 L11.3353454,22 C9.93079316,21.4504348 8.33766673,20.6573913 8.10357468,20.2052174 Z" id="Path" stroke="#FF0000" fill="#FF0000"></path>
        <path d="M48.3003625,26.771094 C47.9965948,26.9327584 47.7628302,27.2030934 47.6443984,27.5296779 C47.3098567,28.4013841 47.5525634,29.7189247 48.3856378,31.4423742 C49.4023822,33.5650785 49.8877956,38.0966196 48.7398584,42.2954485 C46.3455895,44.7575193 39.2939755,46.5342028 37.2998446,47 L37.2998446,46.5874368 L30.8058001,46.5874368 L30.8058001,46.9534203 C28.4443294,46.3545382 20.7433109,44.2517966 18.3424823,41.8030343 C18.1094261,40.955859 17.9492083,40.0897828 17.8636285,39.2145329 C17.8636285,39.1612989 17.0961505,34.1972318 18.9394096,30.6970987 C19.1697599,30.4899807 19.3149293,30.2025802 19.3461074,29.8919351 C19.4313827,29.0867714 18.8147765,28.1485228 17.4634904,27.0372638 C16.2321663,26.0279181 15.0746327,24.9293034 14,23.7500665 L14.7609183,22.9848283 C18.6967029,27.2501996 19.2477128,27.2635081 19.5232177,27.2635081 L19.6872087,27.2635081 L19.7987226,27.2235826 C19.8873298,27.2038522 19.977203,27.1905104 20.0676679,27.1836572 C20.4648541,27.1676291 20.8521673,27.0534142 21.1959261,26.8509449 C21.2894061,26.9908661 21.3947611,27.1222327 21.5107889,27.2435454 C20.978063,28.3398548 20.8955028,29.6056901 21.2812015,30.7636412 C21.7600552,31.9747139 22.8620749,32.84642 24.5610219,33.3721054 C24.7381322,34.2504658 25.2957017,36.1668885 26.8568963,36.9254725 C28.0245123,37.4910833 29.4479544,37.2848017 31.0944243,36.3199361 C31.8143401,36.8666236 32.6318751,37.2665981 33.5018125,37.4977376 C32.7402581,37.527887 32.124077,38.1364981 32.0740529,38.9079567 C32.0240287,39.6794154 32.5563114,40.3646605 33.3074108,40.4957456 C34.0585103,40.6268307 34.7859382,40.1614356 34.9929418,39.4173736 C35.1999455,38.6733117 34.8196949,37.8907992 34.1118591,37.6042055 C34.2582551,37.6120759 34.4049592,37.6120759 34.5513551,37.6042055 C35.8255876,37.6052411 37.0154228,36.9580117 37.7196617,35.8807559 C38.6248921,36.0471121 40.6452615,36.2467394 42.0227861,35.0755922 C42.9423693,34.2142179 43.4252423,32.9749299 43.3347143,31.7085441 C43.9925266,31.720411 44.6342579,31.5018487 45.1517349,31.0896992 C46.2012774,30.2313016 46.6735716,28.5943572 46.5620577,26.2254458 C47.452344,26.0748039 48.2586607,25.602003 48.8316934,24.8945968 C49.6261176,23.9730157 50.3685417,23.006608 51.0554117,22 L52,22.8916689 C51.082542,24.4602917 49.8154486,25.7889608 48.3003625,26.771094 Z" id="Path" fill="#FF0000" fill-rule="nonzero"></path>
        <path d="M45.837018,48.4477086 C43.8318766,50.2896592 42.3681234,51.4982374 41.3053985,52.3836663 C39.5208226,53.8701528 38.7053985,54.5487662 38.2308483,55.7961222 C37.9792517,56.5117754 37.7914206,57.2469265 37.6694087,57.993537 L36.566581,57.993537 L36.566581,53.9606345 L33.3917738,54.1222092 L33.5455013,58 L32.2622108,58 C32.0931011,57.0474281 31.8699711,56.1045645 31.5938303,55.1756757 C31.2796915,54.2708578 30.0766067,53.5793184 28.251928,52.5323149 C26.0395887,51.239718 23.1722365,49.6110458 21,47 C24.2471781,48.2779673 27.601259,49.2855428 31.0257069,50.0117509 L31.0257069,51.5499412 L37.6426735,51.5499412 L37.6426735,50.0440658 C40.8470917,49.3819561 43.9799991,48.4298583 47,47.2003525 C46.6470689,47.6452276 46.2581879,48.0623219 45.837018,48.4477086 Z" id="Path" stroke="#FF0000" fill="#FF0000"></path>
        <path d="M55.1112027,21 L53,19.3169414 C53.062887,18.6318256 53.1645669,17.9512446 53.3045004,17.2788071 L53.6428342,18.315628 L54.4074685,17.513157 C54.7796356,17.1225738 56.0517706,16.0005347 56.9720384,16.0005347 C57.2064118,15.991676 57.4322815,16.0932674 57.5878059,16.2774937 C57.8831304,16.5671036 58.0331996,16.9844657 57.9938064,17.4066343 C57.9058396,18.3724401 56.8705383,19.6365095 55.0976693,21 L55.1112027,21 Z" id="Path" stroke="#FF0000" fill="#FF0000"></path>
        <path d="M35.0602483,18.9196179 C34.7184032,18.9570239 34.4603602,19.2437399 34.4624466,19.5838455 C34.4637756,19.6607531 34.4773768,19.7369709 34.5027478,19.8096829 C34.2018616,19.9320684 33.9331091,20.1206046 33.7168736,20.3609919 L33.6161205,20.4871951 L33.6161205,20.6466097 C33.5623855,20.892374 33.2063912,20.9986504 32.897415,20.9986504 C32.6156092,21.0128349 32.3398094,20.9147453 32.1316914,20.7263171 C31.8404994,20.407847 31.4362903,20.2127455 31.0032567,20.1816504 C31.0340047,20.1009552 31.0499275,20.015477 31.0502748,19.9292439 C31.0855964,19.6968876 30.9799982,19.4656173 30.7803863,19.3381625 C30.5807745,19.2107077 30.3241716,19.2107077 30.1245597,19.3381625 C29.9249479,19.4656173 29.8193496,19.6968876 29.8546713,19.9292439 C29.8562783,20.054254 29.8935294,20.1762777 29.9621413,20.2812845 C29.7068154,20.3518126 29.4592902,20.4474979 29.2232852,20.5669024 C28.9702484,20.6999065 28.6901609,20.7748265 28.4038266,20.7860975 C27.6448199,20.7860975 27.21494,19.9491707 27,19.3380813 L37.9820883,17 C37.9820883,17.8369268 38.0223896,19.138813 37.9820883,19.9292439 C37.9820883,20.028878 37.9820883,20.2347886 37.310401,20.2347886 C37.1739976,20.2444029 37.0370751,20.2444029 36.9006717,20.2347886 C36.5351666,19.944928 36.1042582,19.7466784 35.6446163,19.6569106 C35.6469538,19.6259564 35.6469538,19.5948729 35.6446163,19.5639187 C35.6374685,19.2359075 35.389215,18.9621931 35.0602483,18.9196179 Z" id="Path" fill="#E5D3D0"></path>
        <polygon id="Path" fill="#FFFC66" points="32 49.9941691 32 48 36 48 36 50"></polygon>
        <g id="Group" transform="translate(7.000000, 3.000000)">
            <path d="M26.4129032,22 C28.1612903,22 29.3290323,20.1219512 29.4580645,19.9085366 L30,19 L23,19 L23.5419355,19.9329268 C24.3741935,21.2987805 25.3354839,22 26.4129032,22 Z M27.5741935,20.2195122 C27.2741289,20.5361817 26.8602267,20.7361223 26.4129032,20.7804878 C25.9916096,20.7395986 25.6066563,20.536737 25.3483871,20.2195122 L27.5741935,20.2195122 Z" id="Shape" fill="#000000" fill-rule="nonzero"></path>
            <path d="M26.4999927,39 C25.6724236,39.000008 25.0012115,39.6702427 25.0000016,40.497807 C24.9987918,41.3253712 25.6680412,41.9975656 26.4956068,41.9999934 C27.3231724,42.0024212 27.9963543,41.334165 28,40.5066079 C28.000008,39.6771051 27.3294916,39.0036382 26.4999927,39 Z M26.4999927,40.6850219 C26.4014569,40.6850219 26.3215778,40.6051432 26.3215778,40.5066079 C26.3215778,40.4080725 26.4014569,40.3281938 26.4999927,40.3281938 C26.5985286,40.3281938 26.6784077,40.4080725 26.6784077,40.5066079 C26.6784077,40.6051432 26.5985286,40.6850219 26.4999927,40.6850219 Z" id="Shape" fill="#000000" fill-rule="nonzero"></path>
            <mask id="mask-2" fill="white">
                <use xlink:href="#path-1"></use>
            </mask>
            <use id="Shape" fill="#000000" fill-rule="nonzero" xlink:href="#path-1"></use>
        </g>
        <path d="M16.4121547,58.0592885 L39.0464088,58.0592885 C39.3149171,58.0592885 39.5834254,58.0592885 39.841989,58 L42,63 L15,63 L16.4121547,58.0592885 Z" id="Path" stroke="#000000" stroke-width="2" fill="#FFFFFF" fill-rule="nonzero"></path>
        <path d="M7,34 L11.6039604,34.0000438 C16.3934104,33.9857184 20.484324,37.4861069 21.2574257,42.2600274 L22.009901,46.8000183 C22.5142367,49.85196 24.7158664,52.3365192 27.6633663,53.1800056 L28.4752475,53.4100052 C30.8623486,54.092836 33.4283189,53.6065533 35.4079674,52.0961702 C37.3876158,50.585787 38.5522085,48.225817 38.5544554,45.7200205 L38.5544554,45.0000219 L48,45.0000219 L45.4851485,51.5100089 C44.4622858,54.1997207 41.9121146,55.9816542 39.0594059,56 L9.72277228,56 L7,34 Z" id="Path" stroke="#000000" stroke-width="2" fill="#D50000" fill-rule="nonzero"></path>
        <circle id="Oval" fill="#FF0000" cx="443.5" cy="19.5" r="3.5"></circle>
    </g>
</svg>